<?xml version="1.0" standalone="no"?><svg xmlns="http://www.w3.org/2000/svg" viewBox="0 0 1440 320"><path fill="#0099ff" fill-opacity="1" d="M0,128L0,288L36.9,288L36.9,64L73.8,64L73.8,256L110.8,256L110.8,32L147.7,32L147.7,192L184.6,192L184.6,160L221.5,160L221.5,192L258.5,192L258.5,128L295.4,128L295.4,224L332.3,224L332.3,288L369.2,288L369.2,32L406.2,32L406.2,192L443.1,192L443.1,224L480,224L480,256L516.9,256L516.9,288L553.8,288L553.8,224L590.8,224L590.8,96L627.7,96L627.7,256L664.6,256L664.6,288L701.5,288L701.5,96L738.5,96L738.5,96L775.4,96L775.4,224L812.3,224L812.3,32L849.2,32L849.2,96L886.2,96L886.2,32L923.1,32L923.1,160L960,160L960,288L996.9,288L996.9,256L1033.8,256L1033.8,192L1070.8,192L1070.8,256L1107.7,256L1107.7,160L1144.6,160L1144.6,288L1181.5,288L1181.5,128L1218.5,128L1218.5,128L1255.4,128L1255.4,32L1292.3,32L1292.3,64L1329.2,64L1329.2,224L1366.2,224L1366.2,96L1403.1,96L1403.1,32L1440,32L1440,320L1403.1,320L1403.1,320L1366.2,320L1366.2,320L1329.2,320L1329.2,320L1292.3,320L1292.3,320L1255.4,320L1255.4,320L1218.5,320L1218.5,320L1181.5,320L1181.5,320L1144.6,320L1144.6,320L1107.7,320L1107.7,320L1070.8,320L1070.8,320L1033.8,320L1033.8,320L996.9,320L996.9,320L960,320L960,320L923.1,320L923.1,320L886.2,320L886.2,320L849.2,320L849.2,320L812.3,320L812.3,320L775.4,320L775.4,320L738.5,320L738.5,320L701.5,320L701.5,320L664.6,320L664.6,320L627.7,320L627.7,320L590.8,320L590.8,320L553.8,320L553.8,320L516.9,320L516.9,320L480,320L480,320L443.1,320L443.1,320L406.2,320L406.2,320L369.2,320L369.2,320L332.3,320L332.3,320L295.4,320L295.4,320L258.5,320L258.5,320L221.5,320L221.5,320L184.6,320L184.6,320L147.7,320L147.7,320L110.8,320L110.8,320L73.8,320L73.8,320L36.9,320L36.9,320L0,320L0,320Z"></path></svg>