<svg width="585" height="430" viewBox="0 0 585 430" fill="none" xmlns="http://www.w3.org/2000/svg">
<g clip-path="url(#clip0)">
<path opacity="0.1" d="M421.468 353.321C432.411 357.282 445.761 354.87 458.18 355.151C459.879 355.193 461.678 355.304 463.043 355.986C464.408 356.668 465.075 357.779 466.011 358.731C469.488 362.258 476.594 363.395 482.849 362.793C489.103 362.19 494.792 360.212 500.676 358.704C510.84 356.092 522.455 354.907 532.482 357.752C533.403 358.086 534.378 358.24 535.356 358.207C537.557 357.975 538.208 356.092 539.748 355.002C542.52 353.051 548.547 353.58 549.77 351.004C550.484 349.497 548.838 347.953 547.05 346.921C540.171 342.981 530.398 342.331 521.429 342.939C512.46 343.547 503.628 345.224 494.633 345.229C483.404 345.229 472.552 342.659 461.434 341.601C453.73 340.871 445.322 340.966 438.099 343.114C430.268 345.446 428.543 350.671 421.468 353.321Z" fill="#6C63FF"/>
<path d="M278.689 367.505C329.352 367.505 370.422 359.859 370.422 350.428C370.422 340.996 329.352 333.351 278.689 333.351C228.027 333.351 186.957 340.996 186.957 350.428C186.957 359.859 228.027 367.505 278.689 367.505Z" fill="#6C63FF"/>
<path opacity="0.1" d="M5.94757 412.997C26.7535 419.989 52.1365 415.737 75.7416 416.229C78.9747 416.297 82.3929 416.498 84.9857 417.704C87.5785 418.91 88.8538 420.877 90.6317 422.548C97.246 428.784 110.803 430.772 122.645 429.714C134.487 428.657 145.35 425.156 156.51 422.485C175.84 417.873 197.931 415.779 216.991 420.803C218.737 421.263 220.579 421.797 222.457 421.612C226.637 421.2 227.881 417.857 230.802 415.943C236.093 412.495 247.539 413.431 249.851 408.888C251.211 406.244 248.084 403.494 244.681 401.674C231.654 394.714 213.017 393.567 195.968 394.64C178.919 395.714 162.151 398.676 145.017 398.686C123.703 398.713 103.067 394.159 81.9008 392.298C67.2594 391.007 51.274 391.166 37.5427 394.942C22.6738 399.083 19.3984 408.311 5.94757 412.997Z" fill="#6C63FF"/>
<path opacity="0.1" d="M10.7469 227.394C19.9328 266.635 39.3789 300.556 70.1115 316.999C133.979 351.168 278.017 333.541 385.518 313.297C439.839 303.1 489.145 274.928 525.498 233.317L10.7469 227.394Z" fill="#6C63FF"/>
<path opacity="0.1" d="M574.475 42.6843H515.492C514.14 42.6843 512.844 42.1477 511.888 41.1926C510.933 40.2375 510.396 38.9421 510.396 37.5913C510.396 36.2406 510.933 34.9452 511.888 33.9901C512.844 33.035 514.14 32.4984 515.492 32.4984H525.683C524.359 32.4558 523.104 31.9003 522.183 30.9493C521.261 29.9984 520.746 28.7266 520.746 27.4029C520.746 26.0792 521.261 24.8074 522.183 23.8564C523.104 22.9055 524.359 22.3499 525.683 22.3073H518.402C517.078 22.2647 515.823 21.7091 514.902 20.7582C513.98 19.8072 513.465 18.5354 513.465 17.2117C513.465 15.888 513.98 14.6162 514.902 13.6653C515.823 12.7143 517.078 12.1588 518.402 12.1162H549.188C542.356 8.94301 534.398 6.68478 525.175 5.50013C441.232 -5.27274 411.261 1.86687 400.683 9.18629C387.64 18.2298 373.089 24.8828 357.542 28.0877C305.729 38.7654 208.895 51.6167 121.1 23.9732C77.4613 10.2229 45.0354 33.4504 25.5947 72.2475H584.714C583.984 60.9722 581.799 50.5643 577.788 41.4467C576.868 42.2433 575.692 42.6825 574.475 42.6843Z" fill="#6C63FF"/>
<path opacity="0.1" d="M5.74121 145.484C3.47576 168.304 4.2462 191.322 8.0324 213.94L525.895 232.868C540.311 216.294 552.415 197.846 561.876 178.025L5.74121 145.484ZM210.562 194.33H200.371C201.722 194.33 203.018 194.866 203.974 195.821C204.93 196.776 205.466 198.072 205.466 199.422C205.466 200.773 204.93 202.069 203.974 203.024C203.018 203.979 201.722 204.515 200.371 204.515H141.387C140.036 204.515 138.74 203.979 137.784 203.024C136.828 202.069 136.292 200.773 136.292 199.422C136.292 198.072 136.828 196.776 137.784 195.821C138.74 194.866 140.036 194.33 141.387 194.33H151.578C150.255 194.287 148.999 193.731 148.078 192.78C147.157 191.829 146.642 190.558 146.642 189.234C146.642 187.91 147.157 186.638 148.078 185.687C148.999 184.737 150.255 184.181 151.578 184.138H144.297C142.974 184.096 141.718 183.54 140.797 182.589C139.876 181.638 139.361 180.367 139.361 179.043C139.361 177.719 139.876 176.447 140.797 175.496C141.718 174.545 142.974 173.99 144.297 173.947H203.281C204.605 173.99 205.86 174.545 206.781 175.496C207.703 176.447 208.218 177.719 208.218 179.043C208.218 180.367 207.703 181.638 206.781 182.589C205.86 183.54 204.605 184.096 203.281 184.138H210.562C211.245 184.116 211.926 184.232 212.564 184.478C213.202 184.724 213.784 185.096 214.275 185.571C214.766 186.047 215.156 186.616 215.423 187.245C215.69 187.874 215.827 188.551 215.827 189.234C215.827 189.917 215.69 190.594 215.423 191.223C215.156 191.852 214.766 192.421 214.275 192.897C213.784 193.372 213.202 193.744 212.564 193.99C211.926 194.236 211.245 194.352 210.562 194.33Z" fill="#6C63FF"/>
<path opacity="0.1" d="M584.741 72.6019L19.3561 86.3469C12.4772 104.021 7.92128 123.996 5.81529 144.701H574.83C578.544 132.538 581.291 120.102 583.047 107.507C584.741 95.3375 585.418 83.5651 584.741 72.6019ZM120.608 117.645H110.416C111.086 117.645 111.748 117.777 112.366 118.033C112.985 118.288 113.546 118.664 114.02 119.137C114.493 119.609 114.868 120.171 115.124 120.789C115.38 121.407 115.512 122.069 115.512 122.738C115.512 123.407 115.38 124.069 115.124 124.687C114.868 125.305 114.493 125.866 114.02 126.339C113.546 126.812 112.985 127.187 112.366 127.443C111.748 127.699 111.086 127.831 110.416 127.831H51.4328C50.7636 127.831 50.101 127.699 49.4827 127.443C48.8645 127.187 48.3028 126.812 47.8296 126.339C47.3564 125.866 46.9811 125.305 46.725 124.687C46.4689 124.069 46.3371 123.407 46.3371 122.738C46.3371 122.069 46.4689 121.407 46.725 120.789C46.9811 120.171 47.3564 119.609 47.8296 119.137C48.3028 118.664 48.8645 118.288 49.4827 118.033C50.101 117.777 50.7636 117.645 51.4328 117.645H61.6241C60.3003 117.602 59.0451 117.047 58.1238 116.096C57.2025 115.145 56.6874 113.873 56.6874 112.549C56.6874 111.226 57.2025 109.954 58.1238 109.003C59.0451 108.052 60.3003 107.496 61.6241 107.454H54.343C53.0193 107.411 51.7641 106.856 50.8428 105.905C49.9215 104.954 49.4064 103.682 49.4064 102.358C49.4064 101.034 49.9215 99.7627 50.8428 98.8117C51.7641 97.8608 53.0193 97.3052 54.343 97.2626H113.327C114.65 97.3052 115.906 97.8608 116.827 98.8117C117.748 99.7627 118.263 101.034 118.263 102.358C118.263 103.682 117.748 104.954 116.827 105.905C115.906 106.856 114.65 107.411 113.327 107.454H120.608C121.291 107.432 121.972 107.547 122.61 107.793C123.247 108.04 123.829 108.411 124.32 108.887C124.811 109.362 125.202 109.931 125.469 110.56C125.735 111.19 125.873 111.866 125.873 112.549C125.873 113.233 125.735 113.909 125.469 114.538C125.202 115.167 124.811 115.737 124.32 116.212C123.829 116.687 123.247 117.059 122.61 117.305C121.972 117.551 121.291 117.667 120.608 117.645Z" fill="#6C63FF"/>
<g opacity="0.1">
<path opacity="0.1" d="M334.89 312.033C334.89 312.033 349.812 275.287 377.692 261.643C389.418 256 398.996 246.706 404.985 235.157C407.786 229.654 410.076 223.906 411.827 217.985" stroke="#535461" stroke-width="2" stroke-miterlimit="10"/>
<path opacity="0.1" d="M429.321 209.286C426.416 212.935 411.383 218.276 411.383 218.276C411.383 218.276 413.192 202.437 416.097 198.788C417.541 197.193 419.538 196.208 421.683 196.032C423.827 195.856 425.958 196.503 427.643 197.841C429.327 199.179 430.439 201.108 430.751 203.236C431.064 205.364 430.554 207.531 429.326 209.296L429.321 209.286Z" fill="#6C63FF"/>
<path opacity="0.1" d="M424.162 238.193C419.738 239.679 404.218 235.983 404.218 235.983C404.218 235.983 414.351 223.671 418.775 222.185C420.855 221.629 423.068 221.886 424.965 222.904C426.861 223.921 428.299 225.623 428.985 227.662C429.672 229.701 429.555 231.925 428.659 233.882C427.763 235.838 426.154 237.38 424.162 238.193Z" fill="#6C63FF"/>
<path opacity="0.1" d="M396.212 272.363C391.64 271.411 380.116 260.395 380.116 260.395C380.116 260.395 395.08 254.879 399.646 255.825C400.791 255.988 401.891 256.384 402.877 256.989C403.863 257.593 404.715 258.393 405.38 259.339C406.045 260.285 406.509 261.357 406.743 262.49C406.977 263.622 406.976 264.79 406.741 265.922C406.506 267.054 406.042 268.126 405.376 269.071C404.71 270.017 403.858 270.816 402.871 271.42C401.885 272.023 400.785 272.418 399.639 272.58C398.494 272.743 397.328 272.669 396.212 272.363Z" fill="#6C63FF"/>
<path opacity="0.1" d="M369.226 293.448C364.564 293.285 351.341 284.373 351.341 284.373C351.341 284.373 365.157 276.409 369.818 276.573C370.977 276.536 372.131 276.738 373.208 277.166C374.285 277.593 375.263 278.238 376.081 279.058C376.899 279.879 377.54 280.859 377.963 281.937C378.387 283.015 378.585 284.169 378.544 285.327C378.503 286.485 378.225 287.622 377.727 288.668C377.229 289.714 376.521 290.646 375.647 291.408C374.774 292.169 373.753 292.743 372.648 293.094C371.544 293.445 370.379 293.566 369.226 293.448Z" fill="#6C63FF"/>
<path opacity="0.1" d="M389.772 225.654C390.37 230.281 400.477 242.614 400.477 242.614C400.477 242.614 407.128 228.124 406.53 223.496C406.117 221.388 404.917 219.515 403.173 218.259C401.429 217.002 399.272 216.456 397.14 216.731C395.008 217.005 393.06 218.08 391.692 219.737C390.324 221.394 389.638 223.51 389.772 225.654Z" fill="#6C63FF"/>
<path opacity="0.1" d="M358.527 250.717C360.479 254.947 373.813 263.7 373.813 263.7C373.813 263.7 375.824 247.887 373.872 243.651C373.458 242.569 372.826 241.583 372.015 240.755C371.204 239.927 370.232 239.275 369.159 238.837C368.085 238.4 366.933 238.188 365.774 238.214C364.615 238.24 363.474 238.504 362.422 238.988C361.369 239.473 360.427 240.169 359.654 241.032C358.881 241.896 358.294 242.908 357.929 244.008C357.564 245.108 357.428 246.27 357.531 247.424C357.634 248.578 357.973 249.699 358.527 250.717Z" fill="#6C63FF"/>
<path opacity="0.1" d="M331.498 279.243C332.715 283.749 344.356 294.622 344.356 294.622C344.356 294.622 349.007 279.375 347.801 274.87C347.575 273.733 347.119 272.655 346.46 271.702C345.801 270.749 344.953 269.942 343.969 269.33C342.984 268.718 341.885 268.314 340.739 268.144C339.592 267.974 338.423 268.041 337.303 268.341C336.184 268.642 335.138 269.168 334.23 269.889C333.322 270.609 332.573 271.508 332.027 272.53C331.481 273.553 331.151 274.676 331.057 275.83C330.964 276.985 331.108 278.147 331.482 279.243H331.498Z" fill="#6C63FF"/>
<path opacity="0.25" d="M429.321 209.286C426.416 212.935 411.383 218.276 411.383 218.276C411.383 218.276 413.192 202.437 416.097 198.788C417.541 197.193 419.538 196.208 421.683 196.032C423.827 195.856 425.958 196.503 427.643 197.841C429.327 199.179 430.439 201.108 430.751 203.236C431.064 205.364 430.554 207.531 429.326 209.296L429.321 209.286Z" fill="black"/>
<path opacity="0.25" d="M424.162 238.193C419.738 239.679 404.218 235.983 404.218 235.983C404.218 235.983 414.351 223.671 418.775 222.185C420.855 221.629 423.068 221.886 424.965 222.904C426.861 223.921 428.299 225.623 428.985 227.662C429.672 229.701 429.555 231.925 428.659 233.882C427.763 235.838 426.154 237.38 424.162 238.193Z" fill="black"/>
<path opacity="0.25" d="M396.212 272.363C391.64 271.411 380.116 260.395 380.116 260.395C380.116 260.395 395.08 254.879 399.646 255.825C400.791 255.988 401.891 256.384 402.877 256.989C403.863 257.593 404.715 258.393 405.38 259.339C406.045 260.285 406.509 261.357 406.743 262.49C406.977 263.622 406.976 264.79 406.741 265.922C406.506 267.054 406.042 268.126 405.376 269.071C404.71 270.017 403.858 270.816 402.871 271.42C401.885 272.023 400.785 272.418 399.639 272.58C398.494 272.743 397.328 272.669 396.212 272.363Z" fill="black"/>
<path opacity="0.25" d="M369.226 293.448C364.564 293.285 351.341 284.373 351.341 284.373C351.341 284.373 365.157 276.409 369.818 276.573C370.977 276.536 372.131 276.738 373.208 277.166C374.285 277.593 375.263 278.238 376.081 279.058C376.899 279.879 377.54 280.859 377.963 281.937C378.387 283.015 378.585 284.169 378.544 285.327C378.503 286.485 378.225 287.622 377.727 288.668C377.229 289.714 376.521 290.646 375.647 291.408C374.774 292.169 373.753 292.743 372.648 293.094C371.544 293.445 370.379 293.566 369.226 293.448Z" fill="black"/>
<path opacity="0.25" d="M389.772 225.654C390.37 230.281 400.477 242.614 400.477 242.614C400.477 242.614 407.128 228.124 406.53 223.496C406.117 221.388 404.917 219.515 403.173 218.259C401.429 217.002 399.272 216.456 397.14 216.731C395.008 217.005 393.06 218.08 391.692 219.737C390.324 221.394 389.638 223.51 389.772 225.654Z" fill="black"/>
<path opacity="0.25" d="M358.527 250.717C360.479 254.947 373.813 263.7 373.813 263.7C373.813 263.7 375.824 247.887 373.872 243.651C373.458 242.569 372.826 241.583 372.015 240.755C371.204 239.927 370.232 239.275 369.159 238.837C368.085 238.4 366.933 238.188 365.774 238.214C364.615 238.24 363.474 238.504 362.422 238.988C361.369 239.473 360.427 240.169 359.654 241.032C358.881 241.896 358.294 242.908 357.929 244.008C357.564 245.108 357.428 246.27 357.531 247.424C357.634 248.578 357.973 249.699 358.527 250.717Z" fill="black"/>
<path opacity="0.25" d="M331.498 279.243C332.715 283.749 344.356 294.622 344.356 294.622C344.356 294.622 349.007 279.375 347.801 274.87C347.575 273.733 347.119 272.655 346.46 271.702C345.801 270.749 344.953 269.942 343.969 269.33C342.984 268.718 341.885 268.314 340.739 268.144C339.592 267.974 338.423 268.041 337.303 268.341C336.184 268.642 335.138 269.168 334.23 269.889C333.322 270.609 332.573 271.508 332.027 272.53C331.481 273.553 331.151 274.676 331.057 275.83C330.964 276.985 331.108 278.147 331.482 279.243H331.498Z" fill="black"/>
</g>
<g opacity="0.1">
<path opacity="0.1" d="M324.296 258.29C324.296 258.29 326.18 218.668 347.944 196.567C357.134 187.359 363.086 175.418 364.903 162.54C365.721 156.418 365.975 150.235 365.659 144.067" stroke="#535461" stroke-width="2" stroke-miterlimit="10"/>
<path opacity="0.1" d="M379.28 130.062C377.75 134.468 365.331 144.474 365.331 144.474C365.331 144.474 361.786 128.931 363.315 124.525C364.149 122.542 365.707 120.951 367.672 120.075C369.638 119.199 371.863 119.104 373.896 119.809C375.93 120.514 377.618 121.967 378.618 123.871C379.618 125.776 379.854 127.99 379.28 130.062Z" fill="#6C63FF"/>
<path opacity="0.1" d="M384.042 159.039C380.338 161.905 364.501 163.566 364.501 163.566C364.501 163.566 369.972 148.588 373.655 145.722C374.519 144.949 375.534 144.363 376.635 143.998C377.735 143.634 378.9 143.499 380.055 143.603C381.21 143.706 382.331 144.046 383.35 144.601C384.368 145.156 385.261 145.914 385.974 146.828C386.687 147.742 387.205 148.793 387.495 149.915C387.785 151.038 387.841 152.208 387.66 153.353C387.478 154.497 387.064 155.593 386.441 156.571C385.819 157.549 385.002 158.389 384.042 159.039Z" fill="#6C63FF"/>
<path opacity="0.1" d="M368.967 200.544C364.342 201.162 349.806 194.589 349.806 194.589C349.806 194.589 362.098 184.424 366.739 183.805C368.884 183.658 371.005 184.333 372.671 185.692C374.337 187.052 375.423 188.993 375.708 191.124C375.994 193.254 375.458 195.413 374.208 197.162C372.959 198.912 371.091 200.121 368.982 200.544H368.967Z" fill="#6C63FF"/>
<path opacity="0.1" d="M350.505 229.388C346.049 230.779 330.614 226.743 330.614 226.743C330.614 226.743 341.007 214.648 345.462 213.257C347.553 212.747 349.759 213.053 351.633 214.11C353.507 215.168 354.907 216.9 355.55 218.953C356.192 221.006 356.028 223.226 355.091 225.162C354.154 227.099 352.514 228.606 350.505 229.377V229.388Z" fill="#6C63FF"/>
<path opacity="0.1" d="M347.415 158.605C349.531 162.772 363.141 171.06 363.141 171.06C363.141 171.06 364.606 155.194 362.511 151.021C361.422 149.169 359.669 147.801 357.607 147.193C355.546 146.585 353.33 146.784 351.41 147.748C349.49 148.713 348.008 150.372 347.266 152.388C346.524 154.404 346.577 156.627 347.415 158.605Z" fill="#6C63FF"/>
<path opacity="0.1" d="M326.254 192.611C329.498 195.958 344.98 199.793 344.98 199.793C344.98 199.793 341.631 184.207 338.382 180.854C337.632 179.971 336.708 179.251 335.669 178.739C334.629 178.227 333.495 177.934 332.337 177.878C331.18 177.822 330.023 178.004 328.938 178.413C327.854 178.822 326.865 179.449 326.033 180.256C325.201 181.062 324.543 182.031 324.101 183.102C323.659 184.173 323.442 185.323 323.462 186.481C323.483 187.639 323.742 188.781 324.222 189.835C324.702 190.89 325.394 191.834 326.254 192.611Z" fill="#6C63FF"/>
<path opacity="0.1" d="M310.216 228.483C312.861 232.328 327.466 238.722 327.466 238.722C327.466 238.722 326.799 222.793 324.164 218.943C323.578 217.939 322.792 217.067 321.854 216.38C320.916 215.694 319.847 215.208 318.713 214.952C317.579 214.697 316.405 214.677 315.263 214.895C314.121 215.113 313.037 215.564 312.077 216.219C311.117 216.874 310.302 217.72 309.684 218.703C309.065 219.687 308.656 220.787 308.481 221.936C308.306 223.084 308.37 224.257 308.669 225.379C308.967 226.502 309.494 227.552 310.216 228.462V228.483Z" fill="#6C63FF"/>
</g>
<path d="M198.937 55.1548H195.344V105.904H198.937V55.1548Z" fill="#535461"/>
<path d="M198.937 123.335H195.344V152.042H198.937V123.335Z" fill="#535461"/>
<path d="M334.551 5.4314H222.833C209.069 5.4314 197.91 16.5837 197.91 30.3407V331.156C197.91 344.913 209.069 356.065 222.833 356.065H334.551C348.315 356.065 359.474 344.913 359.474 331.156V30.3407C359.474 16.5837 348.315 5.4314 334.551 5.4314Z" fill="#535461"/>
<path d="M334.551 21.8366H222.833C209.069 21.8366 197.91 32.9889 197.91 46.7459V316.29C197.91 330.047 209.069 341.199 222.833 341.199H334.551C348.315 341.199 359.474 330.047 359.474 316.29V46.7459C359.474 32.9889 348.315 21.8366 334.551 21.8366Z" fill="#6C63FF"/>
<path d="M290.648 13.121H267.239C266.339 13.121 265.609 13.8503 265.609 14.7499V15.0831C265.609 15.9827 266.339 16.712 267.239 16.712H290.648C291.548 16.712 292.278 15.9827 292.278 15.0831V14.7499C292.278 13.8503 291.548 13.121 290.648 13.121Z" fill="#EAEAF3"/>
<path d="M301.511 17.738C302.929 17.738 304.078 16.5896 304.078 15.173C304.078 13.7564 302.929 12.608 301.511 12.608C300.094 12.608 298.945 13.7564 298.945 15.173C298.945 16.5896 300.094 17.738 301.511 17.738Z" fill="#EAEAF3"/>
<path d="M224.24 276.424V266.905C224.24 266.832 224.269 266.762 224.321 266.71C224.373 266.659 224.443 266.63 224.516 266.63H225.574C225.61 266.63 225.645 266.637 225.678 266.651C225.712 266.665 225.742 266.685 225.767 266.711C225.792 266.736 225.812 266.767 225.825 266.8C225.838 266.833 225.844 266.869 225.844 266.905V270.871L230.246 266.799C230.352 266.712 230.48 266.657 230.616 266.64C230.752 266.623 230.89 266.645 231.014 266.703C231.138 266.761 231.243 266.853 231.317 266.968C231.391 267.084 231.431 267.218 231.432 267.354V275.975C231.431 276.112 231.391 276.246 231.317 276.361C231.243 276.476 231.138 276.568 231.014 276.627C230.89 276.685 230.752 276.706 230.616 276.689C230.48 276.672 230.352 276.617 230.246 276.53L225.828 272.479V276.424C225.829 276.46 225.822 276.496 225.809 276.529C225.796 276.563 225.776 276.593 225.751 276.619C225.726 276.644 225.696 276.665 225.663 276.678C225.629 276.692 225.594 276.699 225.558 276.699H224.5C224.43 276.695 224.364 276.665 224.315 276.614C224.267 276.562 224.24 276.495 224.24 276.424Z" fill="#535461"/>
<path d="M330.598 266.884V276.403C330.599 276.439 330.593 276.475 330.579 276.508C330.566 276.541 330.546 276.572 330.521 276.597C330.496 276.623 330.466 276.643 330.433 276.657C330.4 276.671 330.364 276.678 330.328 276.678H329.244C329.208 276.678 329.172 276.671 329.139 276.657C329.106 276.643 329.076 276.623 329.051 276.597C329.026 276.572 329.006 276.541 328.993 276.508C328.98 276.475 328.973 276.439 328.974 276.403V272.437L324.571 276.509C324.466 276.597 324.338 276.652 324.202 276.67C324.066 276.687 323.928 276.665 323.804 276.607C323.681 276.549 323.576 276.456 323.503 276.34C323.43 276.225 323.391 276.091 323.391 275.954V267.354C323.391 267.218 323.43 267.083 323.503 266.968C323.576 266.852 323.681 266.76 323.804 266.701C323.928 266.643 324.066 266.621 324.202 266.639C324.338 266.656 324.466 266.712 324.571 266.799L328.974 270.85V266.905C328.973 266.869 328.98 266.833 328.993 266.8C329.006 266.767 329.026 266.736 329.051 266.711C329.076 266.685 329.106 266.665 329.139 266.651C329.172 266.637 329.208 266.63 329.244 266.63H330.328C330.397 266.63 330.464 266.656 330.514 266.703C330.564 266.75 330.594 266.815 330.598 266.884Z" fill="#535461"/>
<path d="M275.61 276.874H273.451C273.17 276.874 272.901 276.763 272.702 276.564C272.504 276.366 272.393 276.097 272.393 275.816V267.883C272.393 267.603 272.504 267.334 272.702 267.135C272.901 266.937 273.17 266.826 273.451 266.826H275.604C275.885 266.826 276.154 266.937 276.353 267.135C276.551 267.334 276.663 267.603 276.663 267.883V275.779C276.668 275.921 276.644 276.062 276.594 276.194C276.543 276.326 276.466 276.447 276.368 276.549C276.27 276.651 276.152 276.733 276.022 276.789C275.892 276.844 275.751 276.873 275.61 276.874ZM282.436 275.816V267.883C282.436 267.603 282.324 267.334 282.126 267.135C281.927 266.937 281.658 266.826 281.377 266.826H279.224C278.943 266.826 278.674 266.937 278.475 267.135C278.277 267.334 278.165 267.603 278.165 267.883V275.779C278.165 276.06 278.277 276.329 278.475 276.527C278.674 276.726 278.943 276.837 279.224 276.837H281.377C281.517 276.838 281.656 276.812 281.786 276.759C281.915 276.707 282.033 276.629 282.133 276.531C282.232 276.433 282.311 276.315 282.365 276.186C282.419 276.057 282.446 275.919 282.446 275.779L282.436 275.816Z" fill="#535461"/>
<path d="M340.901 254.017H213.906V255.429H340.901V254.017Z" fill="#EAEAF3"/>
<path d="M253.121 258.068C254.971 258.068 256.471 256.569 256.471 254.72C256.471 252.871 254.971 251.372 253.121 251.372C251.271 251.372 249.772 252.871 249.772 254.72C249.772 256.569 251.271 258.068 253.121 258.068Z" fill="#535461"/>
<path d="M253.121 254.017H213.906V255.429H253.121V254.017Z" fill="#535461"/>
<path d="M177.147 201.295C177.147 201.295 172.617 189.76 157.219 179.469C141.821 169.177 142.001 163.074 142.001 163.074C142.001 163.074 139.107 141.486 135.302 135.457C131.497 129.428 129.323 120.728 129.323 120.728C129.323 120.728 129.164 120.94 128.905 121.257C128.905 121.109 128.873 120.955 128.852 120.792C128.465 117.597 127.471 111.605 125.82 113.456C125.82 113.456 125.444 113.763 124.814 114.25L124.555 113.916C123.036 111.954 120.56 108.686 120.56 108.136C120.56 107.337 101.633 92.799 96.828 90.5619C93.4415 88.9754 86.1657 84.9084 82.1866 82.629C80.3222 81.5733 78.1482 81.1993 76.0379 81.5713C70.2173 82.5814 59.1053 85.1993 60.5975 90.2023C62.5871 96.9453 70.2861 95.0837 75.5405 91.26C75.5405 91.26 80.1652 89.4884 85.4143 94.7241C90.6634 99.9598 112.231 115.397 112.231 115.397L114.025 120.368L114.194 120.844C113.57 121.09 112.901 121.2 112.231 121.167C110.602 120.961 111.268 122.558 112.459 124.34C112.623 124.583 112.798 124.832 112.988 125.075C112.771 124.991 112.559 124.911 112.337 124.811C112.337 124.811 112.464 125.054 112.681 125.488L112.337 125.345C112.337 125.345 120.671 141.317 121.211 144.336C121.448 145.657 121.577 146.994 121.597 148.335C121.597 149.725 121.396 150.81 121.031 151.079C120.306 151.608 118.131 157.114 118.131 157.114L109.617 157.479C109.363 157.452 109.088 157.426 108.855 157.389L108.326 157.309C108.326 157.241 108.326 157.177 108.326 157.108C108.326 153.571 107.11 150.141 104.882 147.393H105.009C106.808 143.48 102.934 139.397 102.093 135.166C101.893 133.788 101.805 132.396 101.828 131.004C101.81 130.448 101.762 129.894 101.686 129.343C100.812 123.499 95.2564 119.602 89.8433 117.38C86.6684 116.064 82.9644 115.085 79.8213 116.492C76.149 118.121 74.3764 122.41 71.064 124.689C65.7725 128.333 58.5709 125.821 52.2529 126.9C49.803 127.318 47.3213 128.402 45.9032 130.47C44.6544 132.278 44.3687 134.59 44.3158 136.79C44.1623 142.644 45.337 148.625 43.7866 154.242C41.2732 163.423 32.5053 169.05 25.9492 175.883C21.7708 180.238 18.3703 185.277 15.8955 190.781C14.9589 192.87 14.234 195.541 15.742 197.265C16.6045 198.232 17.9697 198.582 18.8693 199.507C20.0175 200.686 20.171 202.532 19.9593 204.172C19.1709 210.269 14.5885 215.003 10.9639 219.953C7.33922 224.903 4.58238 231.704 7.65141 237.003C10.2971 241.567 16.086 242.932 21.2398 243.878C22.8802 244.175 24.621 244.465 26.1767 243.878C27.579 243.349 28.6214 242.133 29.5421 240.922C31.6668 238.134 33.4305 235.088 34.7912 231.857C35.4579 230.271 36.1193 228.531 37.5851 227.627C38.8815 226.849 40.5006 226.95 42.014 227.071L53.3271 228.002C54.2821 228.153 55.2589 228.086 56.1845 227.806C57.2529 227.297 58.1233 226.449 58.6609 225.395C59.5245 223.881 60.2032 222.268 60.6822 220.593C62.0421 216.193 62.7987 211.475 65.9736 208.323C68.8416 205.515 73.0853 204.674 77.0856 204.621C79.5303 204.621 81.9696 204.843 84.409 204.944C85.0916 204.975 85.7847 204.997 86.4673 204.997C86.9277 204.997 87.3881 204.997 87.8484 204.97C88.7532 211.242 89.8697 220.529 88.9966 223.099C87.6368 227.098 87.7267 229.668 87.7267 229.668L88.3511 229.975C88.2929 230.117 88.2347 230.266 88.1765 230.424C87.5203 232.196 87.06 234.803 89.0866 236.458C89.4194 236.723 89.7734 236.96 90.1449 237.167L89.9914 237.611C88.0177 243.334 83.4883 256.719 83.0649 260.278C82.5358 264.848 76.0009 278.741 76.0009 278.741C76.0009 278.741 58.2481 293.332 74.2335 298.615C74.2335 298.615 75.7892 293.099 79.1281 288.821C81.1251 286.278 82.6485 283.398 83.6258 280.317C84.0521 278.978 84.6802 277.712 85.4884 276.562C86.9118 274.542 89.9226 268.338 92.7377 262.283L94.9918 262.764C93.8595 267.656 93.5579 276.091 97.7646 289.508C97.7646 289.508 97.8545 290.037 97.9974 290.878C97.907 290.814 97.8093 290.761 97.7063 290.719C95.6956 289.889 92.5419 292.75 90.6582 297.119C88.9384 301.112 88.8697 304.978 90.42 306.242C90.5611 306.362 90.7199 306.46 90.891 306.532C91.4497 306.736 92.0656 306.718 92.6107 306.479C92.6363 306.471 92.6611 306.461 92.6848 306.448C93.1317 306.264 93.5504 306.019 93.9283 305.718C95.4416 305.342 96.9867 304.618 98.5424 304.697C98.9525 304.719 99.359 304.786 99.7541 304.898C99.86 306.485 99.9129 308.024 99.8705 309.335C99.6642 316.327 99.5372 319.384 99.5372 319.384C99.5372 319.384 98.5107 324.572 97.6958 325.836C96.8809 327.1 96.0025 353.865 99.3943 366.701C99.3943 366.701 101.707 379.145 100.685 381.271V381.313C100.252 382.435 99.9965 383.618 99.9288 384.819C99.8421 385.854 99.8086 386.892 99.8282 387.929L94.9336 402.901C94.9336 402.901 94.8014 403.166 94.6267 403.599C94.0908 404.867 93.8903 406.251 94.0447 407.619C94.1413 408.253 94.388 408.855 94.7643 409.374C94.7643 409.374 94.0711 415.964 101.511 415.848C108.951 415.731 110.252 410.749 110.252 410.749L109.723 408.417C109.782 408.231 109.812 408.036 109.813 407.841C109.813 407.841 109.76 407.021 109.702 405.789C109.57 402.547 109.416 396.46 110.157 395.063C111.173 393.133 110.559 384.883 110.559 384.883L110.289 382.635L110.009 380.287L109.612 376.961C109.612 376.961 109.496 362.787 110.739 360.725C111.893 358.815 115.639 341.421 114.528 329.765C114.361 327.855 114.59 325.93 115.2 324.112C116.311 320.685 117.846 314.978 117.422 310.943C117.38 310.557 117.353 310.06 117.343 309.462C118.193 310.776 119.337 311.872 120.686 312.666C122.034 313.459 123.549 313.927 125.111 314.032H124.963H125.365C127.655 314.14 129.911 313.448 131.746 312.075C135.551 309.261 139.683 304.57 141.98 296.828C142.604 294.669 143.358 292.549 144.239 290.481C146.356 285.642 149.975 276.551 150.758 270.041L150.986 270.263C150.986 270.263 156.066 255.159 155.923 249.257C155.991 248.481 155.883 247.7 155.605 246.972L155.547 246.507C155.564 246.482 155.583 246.458 155.605 246.438C155.605 246.438 153.6 230.625 152.891 217.139L159.41 212.279C159.41 212.279 156.33 205.933 158.32 204.743C160.309 203.553 163.214 211.036 163.214 211.036C163.214 211.036 182.586 212.12 177.147 201.295ZM104.411 218.773L108.543 214.622C108.94 216.901 107.977 219.635 104.31 222.766L104.183 222.809C104.411 220.534 104.411 218.773 104.411 218.773ZM99.4631 173.138C99.4631 173.138 98.9869 173.503 98.2143 174.122C98.082 173.371 97.9445 172.615 97.7963 171.864C98.0291 172.006 98.2567 172.149 98.4736 172.308C98.8237 172.56 99.1544 172.837 99.4631 173.138ZM120.333 270.818L120.862 266.424L122.02 267.18C120.971 270.237 120.188 273.38 119.682 276.572C119.957 273.764 120.174 271.665 120.264 270.755L120.333 270.818ZM119.274 284.881C119.334 285.705 119.231 286.534 118.973 287.319H118.687C118.867 285.272 119.047 283.273 119.216 281.406C119.182 282.565 119.207 283.725 119.29 284.881H119.274Z" fill="url(#paint0_linear)"/>
<path d="M91.145 299.774V305.591C93.4679 306.453 95.9073 304.449 98.3837 304.576C99.8282 304.644 101.141 305.448 102.569 305.691C102.747 305.738 102.932 305.749 103.114 305.723C103.296 305.696 103.47 305.634 103.627 305.538C103.889 305.269 104.044 304.914 104.061 304.539C104.591 301.445 105.173 293.961 100.357 293.433C96.8015 293.025 95.4416 299.361 91.145 299.774Z" fill="#FFB9B9"/>
<path opacity="0.1" d="M91.145 299.774V305.591C93.4679 306.453 95.9073 304.449 98.3837 304.576C99.8282 304.644 101.141 305.448 102.569 305.691C102.747 305.738 102.932 305.749 103.114 305.723C103.296 305.696 103.47 305.634 103.627 305.538C103.889 305.269 104.044 304.914 104.061 304.539C104.591 301.445 105.173 293.961 100.357 293.433C96.8015 293.025 95.4416 299.361 91.145 299.774Z" fill="black"/>
<path d="M97.8016 300.027C96.4523 303.201 94.4363 305.596 92.6848 306.305C92.6611 306.318 92.6363 306.328 92.6107 306.337C92.081 306.57 91.4808 306.587 90.9386 306.384C90.7699 306.316 90.6142 306.22 90.4783 306.099C88.9702 304.84 89.0337 301.001 90.7111 297.034C92.5419 292.697 95.6163 289.852 97.59 290.688C99.5637 291.523 99.6378 295.691 97.8016 300.027Z" fill="#4C4C78"/>
<path d="M94.7855 407.169L94.685 408.555C94.685 408.555 94.0341 415.06 101.267 414.97C108.501 414.88 109.776 409.903 109.776 409.903L109.03 406.598L94.7855 407.169Z" fill="#4C4C78"/>
<path d="M119.586 270.369C119.586 270.369 116.084 304.676 116.745 310.758C117.179 314.767 115.687 320.436 114.581 323.842C113.988 325.65 113.767 327.558 113.93 329.453C114.988 341.035 111.364 358.313 110.226 360.206C109.014 362.258 109.125 376.337 109.125 376.337L109.512 379.642L109.787 381.974L110.046 384.206C110.046 384.206 110.644 392.403 109.654 394.318C108.935 395.709 109.083 401.754 109.215 404.974C109.268 406.196 109.321 407.01 109.321 407.01C109.313 407.581 109.098 408.129 108.718 408.555C107.824 409.655 105.606 410.903 100.13 410.712C95.7538 410.559 94.3093 408.735 93.9706 406.809C93.8201 405.452 94.0148 404.079 94.5368 402.817C94.7061 402.383 94.8384 402.124 94.8384 402.124L99.6007 387.247C99.581 386.216 99.6146 385.186 99.7012 384.158C99.7649 382.967 100.013 381.794 100.437 380.679V380.636C101.432 378.521 99.1774 366.161 99.1774 366.161C95.8755 353.4 96.7327 326.825 97.5264 325.566C98.3202 324.307 99.3626 319.183 99.3626 319.183C99.3626 319.183 99.4896 316.142 99.6906 309.198C99.8917 302.254 97.6376 289.503 97.6376 289.503C90.1661 265.176 97.3095 257.306 97.3095 257.306L119.597 262.531L119.586 270.369Z" fill="#FFB9B9"/>
<path d="M109.803 381.974C107.379 382.778 102.395 384.306 99.7171 384.158C99.7808 382.967 100.029 381.794 100.453 380.679C102.638 381.118 106.342 381.44 109.527 379.621L109.803 381.974Z" fill="#4C4C78"/>
<path d="M108.734 408.56C105.442 406.836 99.2409 404.382 93.9865 406.815C93.8359 405.457 94.0307 404.084 94.5527 402.822C97.6058 402.415 104.077 402.034 109.231 404.98C109.284 406.201 109.337 407.016 109.337 407.016C109.328 407.586 109.114 408.135 108.734 408.56Z" fill="#4C4C78"/>
<path d="M98.7964 235.157V248.728C98.7964 248.728 88.658 272.31 85.6789 276.625C84.8889 277.769 84.2769 279.026 83.864 280.354C82.9184 283.412 81.4348 286.278 79.4827 288.816C76.2337 293.046 74.7204 298.541 74.7204 298.541C59.1582 293.295 76.4401 278.799 76.4401 278.799C76.4401 278.799 82.7898 265.001 83.3189 260.463C83.7317 256.925 88.1394 243.63 90.0602 237.945C90.5894 236.358 90.9492 235.343 90.9492 235.343L98.7964 235.157Z" fill="#FFB9B9"/>
<path opacity="0.05" d="M120.645 287.98C120.645 287.98 115.2 284.278 113.083 294.326C110.967 304.375 119.084 307.019 119.084 307.019L120.645 287.98Z" fill="black"/>
<path d="M122.872 263.013C122.872 263.013 117.824 274.066 118.576 284.87C118.653 285.867 118.489 286.869 118.1 287.79C115.895 293.082 114.916 298.804 115.237 304.528C115.237 304.634 115.237 304.74 115.237 304.845C115.356 306.579 115.941 308.248 116.93 309.677C117.919 311.106 119.276 312.242 120.857 312.964C122.437 313.687 124.184 313.97 125.913 313.784C127.641 313.598 129.287 312.949 130.677 311.906C134.381 309.108 138.408 304.449 140.641 296.759C141.252 294.617 141.987 292.512 142.842 290.455C145.488 284.273 150.584 271.093 149.054 265.392C147.038 257.835 122.872 263.013 122.872 263.013Z" fill="#FFB9B9"/>
<path opacity="0.1" d="M148.774 265.392C147.89 262.087 142.8 261.214 137.345 261.273C142.387 261.336 146.869 262.33 147.716 265.392C149.24 271.093 144.133 284.273 141.504 290.455C140.644 292.51 139.909 294.616 139.302 296.759C137.064 304.449 133.043 309.113 129.339 311.906C127.821 313.062 125.99 313.737 124.084 313.841C126.352 313.972 128.592 313.285 130.397 311.906C134.101 309.113 138.122 304.449 140.361 296.759C140.967 294.616 141.702 292.51 142.562 290.455C145.192 284.278 150.298 271.093 148.774 265.392Z" fill="black"/>
<path opacity="0.1" d="M95.3146 245.714C95.3146 245.714 91.4096 261.05 90.5523 261.976C90.5523 261.976 115.951 267.064 119.586 270.898L120.116 266.535L121.904 267.725C121.904 267.725 136.588 257.28 149.42 270.369C149.42 270.369 155.7 251.33 153.917 247.76C152.134 244.19 130.698 247.3 130.698 247.3L95.3146 245.714Z" fill="black"/>
<path d="M95.3146 245.185C95.3146 245.185 91.4096 260.522 90.5523 261.447C90.5523 261.447 115.951 266.535 119.586 270.369L120.116 266.006L121.904 267.196C121.904 267.196 136.588 256.751 149.42 269.84C149.42 269.84 155.7 250.801 153.917 247.231C152.134 243.662 130.698 246.771 130.698 246.771L95.3146 245.185Z" fill="#4C4C78"/>
<path d="M94.6003 153.814C94.5332 154.61 94.5492 155.411 94.6479 156.204C94.8225 157.791 95.0659 159.377 95.3358 160.964C95.4152 161.429 95.4998 161.889 95.5845 162.349C96.4205 166.887 97.5 171.388 98.2302 175.946C98.6136 178.279 98.8714 180.631 99.0028 182.991C99.3014 187.171 98.9208 191.371 97.8757 195.43C97.2641 197.688 96.3379 199.849 95.1241 201.85C94.6351 202.722 93.9894 203.497 93.2192 204.135C93.0496 204.256 92.8729 204.367 92.6901 204.468C91.592 205.041 90.3824 205.37 89.1448 205.43C88.3035 205.51 87.4621 205.536 86.6155 205.536C85.9488 205.536 85.2768 205.536 84.61 205.483C82.2342 205.383 79.8478 205.145 77.4825 205.161C73.5933 205.192 69.4607 206.028 66.6668 208.82C63.5343 211.951 62.8199 216.637 61.4971 220.984C61.0284 222.642 60.3678 224.239 59.5286 225.744C59.01 226.786 58.1619 227.628 57.1158 228.14C56.2157 228.419 55.2629 228.486 54.3325 228.335L43.2945 227.41C41.8235 227.288 40.2467 227.188 38.982 227.965C37.5586 228.838 36.913 230.572 36.2622 232.143C34.9406 235.341 33.2234 238.362 31.1507 241.134C30.2564 242.334 29.2405 243.524 27.8753 244.069C26.3619 244.666 24.6687 244.381 23.0707 244.069C18.0544 243.138 12.4243 241.784 9.84206 237.252C6.8524 231.963 9.56162 225.231 13.0646 220.328C16.5675 215.426 21.0493 210.767 21.8166 204.7C22.0229 203.072 21.8748 201.236 20.7583 200.068C19.8799 199.147 18.5518 198.798 17.7157 197.841C16.2447 196.144 16.9485 193.473 17.8639 191.4C20.2642 185.944 23.5764 180.936 27.6583 176.592C34.0451 169.812 42.5802 164.216 45.0248 155.099C46.5223 149.498 45.3793 143.554 45.5275 137.742C45.5804 135.552 45.8609 133.257 47.0779 131.459C48.4695 129.407 50.8824 128.328 53.2689 127.915C59.4175 126.858 66.4181 129.338 71.5825 125.721C74.805 123.457 76.5353 119.194 80.107 117.576C83.1814 116.18 86.7531 117.153 89.8644 118.459C95.1559 120.665 100.543 124.536 101.394 130.343C101.469 130.89 101.515 131.441 101.532 131.993C101.509 133.376 101.596 134.759 101.791 136.129C102.612 140.328 106.379 144.384 104.628 148.292C99.2409 148.959 95.0342 148.975 94.6003 153.814Z" fill="#B96B6B"/>
<path opacity="0.1" d="M97.8757 195.43C95.9655 198.307 94.3463 201.39 92.7112 204.468C91.6132 205.041 90.4035 205.37 89.166 205.43C88.3246 205.51 87.4833 205.536 86.6367 205.536C85.97 205.536 85.2979 205.536 84.6312 205.483C82.2554 205.383 79.8689 205.145 77.5037 205.161C73.6145 205.192 69.4818 206.028 66.688 208.82C63.5554 211.951 62.8411 216.637 61.5182 220.984C61.3277 220.984 61.1372 220.984 60.9467 220.984C58.1952 220.984 55.777 219.244 53.6657 217.488C53.1102 217.082 52.6408 216.57 52.2847 215.981C51.9562 215.275 51.8422 214.488 51.9566 213.718C52.2635 210.655 54.3536 208.117 56.2321 205.684C58.2651 203.051 60.1499 200.308 61.878 197.466C62.6718 196.17 63.4655 194.737 63.3226 193.235C63.2168 192.018 62.5342 190.934 62.2643 189.75C61.5394 186.703 63.5925 183.668 66.0054 181.674C68.4183 179.68 71.2968 178.226 73.3234 175.83C75.35 173.434 76.3184 170.124 76.5459 166.924C76.7099 164.676 76.6411 162.164 78.1704 160.509C80.4245 158.06 83.9116 159.578 86.7108 159.811C89.6316 160.059 92.4943 160.445 95.357 160.937C95.4363 161.403 95.521 161.863 95.6057 162.323C96.4417 166.861 97.5212 171.361 98.2514 175.92C98.6347 178.253 98.8926 180.604 99.0239 182.964C99.3185 187.154 98.9307 191.364 97.8757 195.43Z" fill="black"/>
<path d="M124.814 116.513L114.232 123.743L113.422 121.453L111.676 116.513C111.676 116.513 90.6846 101.176 85.5678 95.9775C80.451 90.7788 75.9586 92.5399 75.9586 92.5399C70.8417 96.3318 63.3438 98.1828 61.4071 91.4822C59.9626 86.5109 70.773 83.9142 76.4401 82.9093C78.4973 82.5423 80.6182 82.9171 82.4247 83.9671C86.298 86.22 93.3833 90.2764 96.6798 91.8365C101.357 94.0366 119.788 108.496 119.788 109.289C119.788 109.818 122.195 113.086 123.677 115.032C124.338 115.905 124.814 116.513 124.814 116.513Z" fill="#FFB9B9"/>
<path d="M145.451 180.685L150.213 218.409L157.621 212.771C157.621 212.771 154.621 206.425 156.563 205.282C158.505 204.14 161.325 211.533 161.325 211.533C161.325 211.533 180.2 212.591 174.908 201.839L168.908 194.081L157.092 185.699L145.451 180.685Z" fill="#757A9B"/>
<path opacity="0.1" d="M145.451 180.685L150.213 218.409L157.621 212.771C157.621 212.771 154.621 206.425 156.563 205.282C158.505 204.14 161.325 211.533 161.325 211.533C161.325 211.533 180.2 212.591 174.908 201.839L168.908 194.081L157.092 185.699L145.451 180.685Z" fill="black"/>
<path d="M127.635 178.919L125.344 197.957L110.062 199.195C110.062 199.195 93.759 194.546 99.77 183.149C102.5 177.967 100.786 174.862 98.3096 173.043C96.4946 171.818 94.4374 170.997 92.2773 170.637C92.2773 170.637 91.8329 141.549 96.9444 151.418C99.2409 155.855 103.924 157.621 108.384 158.224C111.916 158.647 115.49 158.553 118.994 157.944L127.635 178.919Z" fill="#FFB9B9"/>
<path opacity="0.1" d="M108.39 158.473C108.389 161.638 107.424 164.728 105.622 167.331C103.82 169.934 101.268 171.926 98.3043 173.043C96.4893 171.818 94.4321 170.997 92.2721 170.637C92.2721 170.637 91.8276 141.549 96.9391 151.418C99.2356 155.855 103.918 157.621 108.379 158.224C108.39 158.309 108.39 158.409 108.39 158.473Z" fill="black"/>
<path d="M92.2774 173.519C100.884 173.519 107.861 166.546 107.861 157.944C107.861 149.342 100.884 142.369 92.2774 142.369C83.6709 142.369 76.6941 149.342 76.6941 157.944C76.6941 166.546 83.6709 173.519 92.2774 173.519Z" fill="#FFB9B9"/>
<path opacity="0.1" d="M124.814 116.513L114.232 123.743L113.422 121.453C116.57 120.421 121.423 116.799 123.677 115.032C124.338 115.905 124.814 116.513 124.814 116.513Z" fill="black"/>
<path d="M128.079 123.743L127.635 125.768L115.29 129.735C114.072 128.355 112.94 126.904 111.898 125.387C110.739 123.626 110.088 122.04 111.676 122.246C115.115 122.685 124.904 114.577 124.904 114.577C126.539 112.742 127.497 118.697 127.883 121.876C128.016 122.976 128.079 123.743 128.079 123.743Z" fill="#CBCDDA"/>
<path opacity="0.1" d="M98.7964 235.157V239.997C97.7381 239.997 93.0605 239.759 90.0602 237.934C90.5894 236.347 90.9492 235.332 90.9492 235.332L98.7964 235.157Z" fill="black"/>
<path d="M101.093 230.398L100.421 233.391L99.0292 239.473C99.0292 239.473 92.4149 239.473 89.1977 236.786C87.224 235.142 87.6685 232.555 88.3088 230.794C88.5444 230.135 88.842 229.499 89.1977 228.896L101.093 230.398Z" fill="#CBCDDA"/>
<path opacity="0.1" d="M101.093 230.398L100.421 233.391C97.2936 235.041 90.1396 231.699 88.3087 230.794C88.5443 230.135 88.842 229.499 89.1977 228.896L101.093 230.398Z" fill="black"/>
<path d="M88.7427 193.113L87.0706 199.549C87.0706 199.549 90.4201 219.556 89.0972 223.523C87.7743 227.489 87.8643 230.043 87.8643 230.043C87.8643 230.043 97.5635 235.157 100.828 232.603C104.093 230.049 104.088 219.228 104.088 219.228L110.967 212.179L102.236 199.576L88.7427 193.113Z" fill="#757A9B"/>
<path opacity="0.1" d="M121.904 167.929C121.904 167.929 130.238 195.826 103.12 189.348L110.967 220.154L95.3146 249.241C95.3146 249.241 145.451 257.703 153.917 246.729C153.917 246.729 149.816 213.675 151.404 202.569C152.991 191.463 146.377 174.138 142.805 173.016C139.234 171.895 121.904 167.929 121.904 167.929Z" fill="black"/>
<path opacity="0.1" d="M121.904 168.987C121.904 168.987 130.238 196.884 103.12 190.405L110.967 221.211L95.3146 250.299C95.3146 250.299 145.451 258.76 153.917 247.787C153.917 247.787 149.816 214.733 151.404 203.627C152.991 192.521 146.377 175.195 142.805 174.074C139.234 172.953 121.904 168.987 121.904 168.987Z" fill="black"/>
<path d="M121.904 168.458C121.904 168.458 130.238 196.355 103.12 189.877L110.967 220.683L95.3146 249.77C95.3146 249.77 145.451 258.232 153.917 247.258C153.917 247.258 149.816 214.204 151.404 203.098C152.991 191.992 146.377 174.666 142.805 173.545C139.234 172.424 121.904 168.458 121.904 168.458Z" fill="#CBCDDA"/>
<path opacity="0.1" d="M122.079 126.942C120.491 127.683 116.925 128.656 111.76 126.387C111.76 126.387 119.877 142.253 120.407 145.251C120.936 148.25 120.936 151.952 120.227 152.481C119.518 153.01 117.406 158.473 117.406 158.473L109.115 158.838C109.115 158.838 114.406 160.953 114.406 164.994C114.406 169.034 126.047 176.629 132.222 179.627C138.397 182.626 163.616 191.458 163.616 191.458L174.908 202.368C174.908 202.368 170.495 190.908 155.505 180.685C140.514 170.462 140.689 164.38 140.689 164.38C140.689 164.38 137.868 142.961 134.164 136.964C130.46 130.967 128.344 122.336 128.344 122.336C128.344 122.336 125.381 126.419 123.619 126.53C123.084 126.571 122.562 126.711 122.079 126.942Z" fill="black"/>
<path opacity="0.1" d="M128.079 123.743L127.635 125.768L115.29 129.735C114.072 128.355 112.94 126.904 111.898 125.387C116.994 127.582 120.491 126.62 122.079 125.884C122.561 125.651 123.084 125.511 123.619 125.472C124.957 125.387 126.984 123.018 127.883 121.876C128.016 122.976 128.079 123.743 128.079 123.743Z" fill="black"/>
<path d="M122.079 126.413C120.491 127.154 116.925 128.127 111.76 125.858C111.76 125.858 119.877 141.724 120.407 144.722C120.936 147.721 120.936 151.423 120.227 151.952C119.518 152.481 117.406 157.944 117.406 157.944L109.115 158.309C109.115 158.309 114.406 160.424 114.406 164.465C114.406 168.505 126.047 176.1 132.222 179.098C138.397 182.097 163.616 190.929 163.616 190.929L174.908 201.839C174.908 201.839 170.495 190.379 155.505 180.156C140.514 169.933 140.689 163.851 140.689 163.851C140.689 163.851 137.868 142.433 134.164 136.435C130.46 130.438 128.344 121.807 128.344 121.807C128.344 121.807 125.381 125.89 123.619 126.001C123.084 126.042 122.562 126.182 122.079 126.413Z" fill="#757A9B"/>
<path opacity="0.1" d="M82.1972 169.69C82.7263 168.024 82.4088 166.21 82.6311 164.475C83.2237 159.774 87.6526 155.987 87.4463 151.254C87.3682 150.812 87.4331 150.356 87.6315 149.953C87.9257 149.622 88.3378 149.419 88.7797 149.387C91.0868 148.969 93.7378 149.191 95.4522 147.594C97.1666 145.997 97.1243 143.104 96.865 140.671C96.7221 139.365 96.5158 137.927 95.5157 137.065C94.8333 136.566 94.0396 136.241 93.2033 136.118C90.3177 135.462 87.4163 134.889 84.4989 134.399C81.5569 133.902 78.4614 133.505 75.6622 134.537C72.8631 135.568 70.6883 137.99 68.6934 140.301C66.815 142.475 64.8095 145.087 65.3386 147.917C65.6297 149.45 66.6298 150.736 67.2965 152.148C67.9957 153.665 68.313 155.331 68.2207 156.999C68.1285 158.668 67.6296 160.288 66.7673 161.72C65.381 163.962 63.0633 165.734 62.5024 168.304C61.9733 170.705 63.1956 173.318 65.2487 174.677C69.4554 177.448 80.5409 174.942 82.1972 169.69Z" fill="black"/>
<path d="M81.668 169.69C82.1972 168.024 81.8797 166.21 82.1019 164.475C82.6946 159.774 87.1235 155.987 86.9171 151.254C86.8391 150.812 86.904 150.356 87.1023 149.953C87.3966 149.622 87.8086 149.419 88.2506 149.387C90.5576 148.969 93.2086 149.191 94.9231 147.594C96.6375 145.997 96.5952 143.104 96.3359 140.671C96.193 139.365 95.9866 137.927 94.9866 137.065C94.3042 136.566 93.5105 136.241 92.6742 136.118C89.7886 135.462 86.8871 134.889 83.9698 134.399C81.0278 133.902 77.9323 133.505 75.1331 134.537C72.3339 135.568 70.1591 137.99 68.1643 140.301C66.2858 142.475 64.2804 145.087 64.8095 147.917C65.1005 149.45 66.1006 150.736 66.7673 152.148C67.4665 153.665 67.7838 155.331 67.6916 156.999C67.5994 158.668 67.1004 160.288 66.2382 161.72C64.8518 163.962 62.5342 165.734 61.9733 168.304C61.4442 170.705 62.6665 173.318 64.7196 174.677C68.9262 177.448 80.0118 174.942 81.668 169.69Z" fill="#B96B6B"/>
<path opacity="0.1" d="M99.8018 173.868C99.8018 173.868 86.716 184.212 86.2769 187.65C85.8377 191.088 87.6844 199.195 87.6844 199.195L100.738 207.392C100.738 207.392 115.819 213.3 104.532 223.168C93.2457 233.037 89.2718 254.196 89.2718 254.196C89.2718 254.196 94.7432 260.717 104.971 241.969C104.971 241.969 114.851 231.217 115.29 225.929C115.729 220.64 117.269 204.42 110.591 194.372C106.183 187.74 103.786 180.294 102.061 176.438C101.647 175.335 100.843 174.421 99.8018 173.868Z" fill="black"/>
<path d="M99.2726 173.868C99.2726 173.868 86.1869 184.212 85.7477 187.65C85.3085 191.088 87.1552 199.195 87.1552 199.195L100.209 207.392C100.209 207.392 115.29 213.3 104.003 223.168C92.7165 233.037 88.7427 254.196 88.7427 254.196C88.7427 254.196 94.214 260.717 104.442 241.969C104.442 241.969 114.321 231.217 114.761 225.929C115.2 220.64 116.74 204.42 110.062 194.372C105.654 187.74 103.257 180.294 101.532 176.438C101.118 175.335 100.314 174.421 99.2726 173.868Z" fill="#757A9B"/>
<path opacity="0.1" d="M104.003 223.168C104.003 223.168 92.5208 226.764 93.9177 237.976L104.003 223.168Z" fill="black"/>
<path opacity="0.1" d="M106.749 207.657L104.088 219.207L109.115 214.056L106.749 207.657Z" fill="black"/>
<path opacity="0.1" d="M120.116 266.011L116.687 268.608L119.586 270.374L120.116 266.011Z" fill="black"/>
<path opacity="0.1" d="M139.366 207.657C139.366 207.657 151.166 208.038 151.404 203.6L139.366 207.657Z" fill="black"/>
<path d="M23.3246 385.465C23.3246 385.465 26.2349 389.267 21.9859 394.984C17.7369 400.701 14.234 405.561 15.6362 409.137C15.6362 409.137 22.0441 398.485 27.2773 398.337C32.5106 398.189 29.0659 391.875 23.3246 385.465Z" fill="#6C63FF"/>
<path opacity="0.1" d="M23.3247 385.465C23.5785 385.832 23.7797 386.232 23.9226 386.655C29.0129 392.636 31.7222 398.216 26.8276 398.353C22.2717 398.512 16.8162 406.63 15.4933 408.687C15.5359 408.845 15.5889 409.001 15.6521 409.152C15.6521 409.152 22.06 398.501 27.2932 398.353C32.5265 398.205 29.0659 391.875 23.3247 385.465Z" fill="black"/>
<path d="M28.7325 390.309C28.7325 391.647 28.579 392.731 28.3938 392.731C28.2086 392.731 28.0605 391.647 28.0605 390.309C28.0605 388.971 28.2457 389.6 28.4309 389.6C28.6161 389.6 28.7325 388.992 28.7325 390.309Z" fill="#FFD037"/>
<path d="M30.5739 391.906C29.3992 392.546 28.3727 392.932 28.288 392.768C28.2033 392.604 29.0764 391.954 30.2511 391.314C31.4258 390.674 30.9655 391.139 31.0554 391.314C31.1454 391.488 31.7592 391.266 30.5739 391.906Z" fill="#FFD037"/>
<path d="M7.97419 385.465C7.97419 385.465 5.0639 389.267 9.31293 394.984C13.5619 400.701 17.0649 405.561 15.6626 409.137C15.6626 409.137 9.24943 398.485 4.02149 398.337C-1.20645 398.189 2.23298 391.875 7.97419 385.465Z" fill="#6C63FF"/>
<path opacity="0.1" d="M7.97419 385.465C7.72038 385.832 7.51912 386.232 7.37626 386.655C2.28589 392.636 -0.423322 398.216 4.47126 398.353C9.02718 398.485 14.4932 406.63 15.8055 408.687C15.7623 408.845 15.7111 409 15.6521 409.152C15.6521 409.152 9.23884 398.512 4.02149 398.353C-1.19587 398.194 2.23298 391.875 7.97419 385.465Z" fill="black"/>
<path d="M2.56635 390.309C2.56635 391.647 2.7198 392.731 2.905 392.731C3.0902 392.731 3.23836 391.647 3.23836 390.309C3.23836 388.971 3.05316 389.6 2.86796 389.6C2.68276 389.6 2.56635 388.992 2.56635 390.309Z" fill="#FFD037"/>
<path d="M0.714341 391.906C1.88904 392.546 2.91558 392.932 3.00024 392.768C3.0849 392.604 2.21182 391.954 1.03712 391.314C-0.137579 390.674 0.322775 391.139 0.232821 391.314C0.142866 391.488 -0.460357 391.266 0.714341 391.906Z" fill="#FFD037"/>
<path d="M3.49234 408.655C3.49234 408.655 11.62 408.407 14.0752 406.667C16.5304 404.927 26.5789 402.838 27.1874 405.635C27.7959 408.433 39.4 419.539 30.2247 419.613C21.0493 419.687 8.87902 418.185 6.45555 416.699C4.03207 415.213 3.49234 408.655 3.49234 408.655Z" fill="#A8A8A8"/>
<path opacity="0.2" d="M30.3834 418.64C21.2081 418.714 9.06422 417.212 6.61958 415.726C4.757 414.589 4.0162 410.522 3.7675 408.645H3.49234C3.49234 408.645 4.02149 415.197 6.45555 416.689C8.88961 418.18 21.0493 419.666 30.2194 419.613C32.8651 419.613 33.7805 418.651 33.7329 417.254C33.3625 418.079 32.3518 418.608 30.3834 418.64Z" fill="black"/>
<path d="M545.187 342.981C546.156 342.19 546.862 341.125 547.214 339.925C547.478 338.708 546.96 337.249 545.796 336.804C544.494 336.307 543.102 337.212 542.049 338.121C540.996 339.031 539.785 340.073 538.404 339.877C539.115 339.235 539.647 338.419 539.947 337.51C540.248 336.6 540.307 335.628 540.118 334.689C540.061 334.299 539.896 333.933 539.642 333.631C538.922 332.859 537.61 333.192 536.747 333.8C533.996 335.731 533.229 339.47 533.213 342.828C532.932 341.617 533.17 340.353 533.16 339.126C533.149 337.899 532.811 336.482 531.763 335.837C531.113 335.488 530.384 335.314 529.646 335.334C528.408 335.286 527.032 335.413 526.186 336.318C525.127 337.439 525.408 339.327 526.323 340.549C527.239 341.77 528.625 342.564 529.906 343.415C530.93 344.026 531.804 344.859 532.461 345.853C532.538 345.993 532.602 346.14 532.652 346.292H540.404C542.14 345.408 543.749 344.294 545.187 342.981Z" fill="#6C63FF"/>
<path d="M483.574 351.3C483.574 351.3 476.139 326.058 484.965 307.495C488.72 299.731 489.852 290.958 488.193 282.496C487.373 278.484 486.188 274.556 484.653 270.76" stroke="#535461" stroke-width="2" stroke-miterlimit="10"/>
<path d="M490.146 259.025C490.146 262.113 484.542 271.083 484.542 271.083C484.542 271.083 478.938 262.092 478.938 259.025C478.938 257.54 479.529 256.115 480.58 255.065C481.631 254.014 483.056 253.424 484.542 253.424C486.028 253.424 487.454 254.014 488.504 255.065C489.555 256.115 490.146 257.54 490.146 259.025Z" fill="#6C63FF"/>
<path d="M499.395 276.149C497.712 278.746 488.135 283.231 488.135 283.231C488.135 283.231 488.31 272.654 489.987 270.068C490.378 269.433 490.893 268.882 491.5 268.449C492.107 268.015 492.795 267.707 493.523 267.543C494.25 267.378 495.004 267.361 495.738 267.492C496.473 267.622 497.174 267.898 497.801 268.303C498.427 268.708 498.967 269.234 499.387 269.85C499.807 270.466 500.101 271.16 500.249 271.891C500.398 272.622 500.399 273.375 500.252 274.106C500.105 274.838 499.814 275.532 499.395 276.149Z" fill="#6C63FF"/>
<path d="M498.998 305.432C496.236 306.823 485.706 305.861 485.706 305.861C485.706 305.861 491.193 296.828 493.956 295.432C494.614 295.083 495.336 294.869 496.078 294.803C496.821 294.736 497.569 294.819 498.279 295.045C498.99 295.271 499.648 295.637 500.215 296.12C500.782 296.604 501.247 297.195 501.582 297.861C501.918 298.526 502.117 299.251 502.168 299.995C502.22 300.738 502.122 301.484 501.882 302.189C501.641 302.894 501.262 303.544 500.767 304.101C500.272 304.658 499.671 305.111 498.998 305.432Z" fill="#6C63FF"/>
<path d="M493.707 327.496C491.215 329.337 480.674 330.141 480.674 330.141C480.674 330.141 484.553 320.309 487.024 318.469C488.22 317.66 489.683 317.344 491.107 317.587C492.53 317.83 493.805 318.613 494.665 319.773C495.525 320.933 495.904 322.38 495.723 323.812C495.541 325.244 494.813 326.551 493.691 327.459L493.707 327.496Z" fill="#6C63FF"/>
<path d="M476.383 283.828C478.6 285.986 488.939 288.218 488.939 288.218C488.939 288.218 486.41 277.953 484.177 275.8C483.112 274.766 481.679 274.197 480.194 274.218C478.709 274.239 477.293 274.849 476.258 275.914C475.223 276.979 474.654 278.411 474.675 279.895C474.697 281.379 475.307 282.794 476.372 283.828H476.383Z" fill="#6C63FF"/>
<path d="M470.514 309.727C473.277 311.123 483.812 310.16 483.812 310.16C483.812 310.16 478.325 301.122 475.584 299.731C474.263 299.112 472.754 299.032 471.375 299.507C469.997 299.983 468.858 300.977 468.201 302.278C467.544 303.579 467.42 305.085 467.856 306.476C468.292 307.867 469.253 309.033 470.536 309.727H470.514Z" fill="#6C63FF"/>
<path d="M468.271 335.683C470.758 337.518 481.304 338.327 481.304 338.327C481.304 338.327 477.42 328.491 474.954 326.65C474.367 326.169 473.688 325.813 472.959 325.602C472.23 325.391 471.465 325.33 470.712 325.424C469.959 325.517 469.232 325.762 468.577 326.145C467.921 326.527 467.35 327.039 466.898 327.648C466.447 328.258 466.124 328.953 465.949 329.691C465.774 330.43 465.751 331.196 465.881 331.943C466.011 332.691 466.292 333.404 466.707 334.039C467.121 334.675 467.661 335.22 468.292 335.641L468.271 335.683Z" fill="#6C63FF"/>
<path d="M490.146 259.025C490.146 262.113 484.542 271.083 484.542 271.083C484.542 271.083 478.938 262.092 478.938 259.025C478.938 257.54 479.529 256.115 480.58 255.065C481.631 254.014 483.056 253.424 484.542 253.424C486.028 253.424 487.454 254.014 488.504 255.065C489.555 256.115 490.146 257.54 490.146 259.025Z" fill="#6C63FF"/>
<path d="M499.395 276.149C497.712 278.746 488.135 283.231 488.135 283.231C488.135 283.231 488.31 272.654 489.987 270.068C490.378 269.433 490.893 268.882 491.5 268.449C492.107 268.015 492.795 267.707 493.523 267.543C494.25 267.378 495.004 267.361 495.738 267.492C496.473 267.622 497.174 267.898 497.801 268.303C498.427 268.708 498.967 269.234 499.387 269.85C499.807 270.466 500.101 271.16 500.249 271.891C500.398 272.622 500.399 273.375 500.252 274.106C500.105 274.838 499.814 275.532 499.395 276.149Z" fill="#6C63FF"/>
<path d="M498.998 305.432C496.236 306.823 485.706 305.861 485.706 305.861C485.706 305.861 491.193 296.828 493.956 295.432C494.614 295.083 495.336 294.869 496.078 294.803C496.821 294.736 497.569 294.819 498.279 295.045C498.99 295.271 499.648 295.637 500.215 296.12C500.782 296.604 501.247 297.195 501.582 297.861C501.918 298.526 502.117 299.251 502.168 299.995C502.22 300.738 502.122 301.484 501.882 302.189C501.641 302.894 501.262 303.544 500.767 304.101C500.272 304.658 499.671 305.111 498.998 305.432Z" fill="#6C63FF"/>
<path d="M493.707 327.496C491.215 329.337 480.674 330.141 480.674 330.141C480.674 330.141 484.553 320.309 487.024 318.469C488.22 317.66 489.683 317.344 491.107 317.587C492.53 317.83 493.805 318.613 494.665 319.773C495.525 320.933 495.904 322.38 495.723 323.812C495.541 325.244 494.813 326.551 493.691 327.459L493.707 327.496Z" fill="#6C63FF"/>
<path d="M476.383 283.828C478.6 285.986 488.939 288.218 488.939 288.218C488.939 288.218 486.41 277.953 484.177 275.8C483.112 274.766 481.679 274.197 480.194 274.218C478.709 274.239 477.293 274.849 476.258 275.914C475.223 276.979 474.654 278.411 474.675 279.895C474.697 281.379 475.307 282.794 476.372 283.828H476.383Z" fill="#6C63FF"/>
<path d="M470.514 309.727C473.277 311.123 483.812 310.16 483.812 310.16C483.812 310.16 478.325 301.122 475.584 299.731C474.263 299.112 472.754 299.032 471.375 299.507C469.997 299.983 468.858 300.977 468.201 302.278C467.544 303.579 467.42 305.085 467.856 306.476C468.292 307.867 469.253 309.033 470.536 309.727H470.514Z" fill="#6C63FF"/>
<path d="M468.271 335.683C470.758 337.518 481.304 338.327 481.304 338.327C481.304 338.327 477.42 328.491 474.954 326.65C474.367 326.169 473.688 325.813 472.959 325.602C472.23 325.391 471.465 325.33 470.712 325.424C469.959 325.517 469.232 325.762 468.577 326.145C467.921 326.527 467.35 327.039 466.898 327.648C466.447 328.258 466.124 328.953 465.949 329.691C465.774 330.43 465.751 331.196 465.881 331.943C466.011 332.691 466.292 333.404 466.707 334.039C467.121 334.675 467.661 335.22 468.292 335.641L468.271 335.683Z" fill="#6C63FF"/>
<path d="M466.001 349.709C466.001 349.709 475.054 347.91 477.467 345.515C479.88 343.119 490.749 338.925 491.955 341.918C493.162 344.912 508.253 355.098 497.993 356.896C487.733 358.694 473.848 359.291 470.827 358.091C467.805 356.89 466.001 349.709 466.001 349.709Z" fill="#A8A8A8"/>
<path opacity="0.2" d="M497.993 355.78C487.733 357.578 473.848 358.176 470.827 356.98C468.53 356.065 466.932 351.692 466.302 349.645L466.001 349.709C466.001 349.709 467.811 356.896 470.827 358.091C473.843 359.286 487.759 358.694 497.993 356.896C500.956 356.367 501.803 355.156 501.48 353.617C501.231 354.616 500.199 355.394 497.993 355.78Z" fill="black"/>
<path d="M338.673 67.7205H218.711C213.173 67.7205 208.684 72.2074 208.684 77.7424V197.64C208.684 203.175 213.173 207.662 218.711 207.662H338.673C344.211 207.662 348.7 203.175 348.7 197.64V77.7424C348.7 72.2074 344.211 67.7205 338.673 67.7205Z" fill="#EAEAF3"/>
<path opacity="0.1" d="M288.092 91.9423H239.258C233.72 91.9423 229.23 96.4292 229.23 101.964V150.773C229.23 156.308 233.72 160.795 239.258 160.795H288.092C293.63 160.795 298.12 156.308 298.12 150.773V101.964C298.12 96.4292 293.63 91.9423 288.092 91.9423Z" fill="#6C63FF"/>
<path opacity="0.1" d="M318.116 114.577H269.281C263.743 114.577 259.254 119.064 259.254 124.599V173.408C259.254 178.943 263.743 183.43 269.281 183.43H318.116C323.654 183.43 328.143 178.943 328.143 173.408V124.599C328.143 119.064 323.654 114.577 318.116 114.577Z" fill="#6C63FF"/>
</g>
<defs>
<linearGradient id="paint0_linear" x1="92.2086" y1="415.853" x2="92.2086" y2="81.4338" gradientUnits="userSpaceOnUse">
<stop stop-color="#808080" stop-opacity="0.25"/>
<stop offset="0.54" stop-color="#808080" stop-opacity="0.12"/>
<stop offset="1" stop-color="#808080" stop-opacity="0.1"/>
</linearGradient>
<clipPath id="clip0">
<rect width="585" height="430" fill="white"/>
</clipPath>
</defs>
</svg>
